<mxfile host="app.diagrams.net" agent="Mozilla/5.0 (Windows NT 10.0; Win64; x64) AppleWebKit/537.36 (KHTML, like Gecko) Chrome/140.0.0.0 Safari/537.36 Edg/140.0.0.0" version="28.2.4">
  <diagram name="pp_ss" id="RpFAiaeBJLlaWnwTVHZz">
    <mxGraphModel dx="1065" dy="870" grid="1" gridSize="10" guides="1" tooltips="1" connect="1" arrows="1" fold="1" page="1" pageScale="1" pageWidth="827" pageHeight="1169" math="0" shadow="0">
      <root>
        <mxCell id="0" />
        <mxCell id="1" parent="0" />
        <mxCell id="-2QtOGoEhmq292CrAgA1-68" value="PP Subsystem" style="rounded=0;whiteSpace=wrap;html=1;verticalAlign=top;fontSize=15;fontStyle=1" vertex="1" parent="1">
          <mxGeometry x="20" y="140" width="700" height="700" as="geometry" />
        </mxCell>
        <mxCell id="-2QtOGoEhmq292CrAgA1-59" value="Periph" style="rounded=0;whiteSpace=wrap;html=1;verticalAlign=top;" vertex="1" parent="1">
          <mxGeometry x="130" y="430" width="150" height="310" as="geometry" />
        </mxCell>
        <mxCell id="-2QtOGoEhmq292CrAgA1-78" style="edgeStyle=none;curved=1;rounded=1;orthogonalLoop=1;jettySize=auto;html=1;exitX=0;exitY=0.5;exitDx=0;exitDy=0;entryX=1.012;entryY=0.263;entryDx=0;entryDy=0;fontSize=12;startSize=8;endSize=8;entryPerimeter=0;" edge="1" parent="1" source="-2QtOGoEhmq292CrAgA1-79" target="-2QtOGoEhmq292CrAgA1-17">
          <mxGeometry relative="1" as="geometry" />
        </mxCell>
        <mxCell id="-2QtOGoEhmq292CrAgA1-80" style="edgeStyle=none;curved=1;rounded=1;orthogonalLoop=1;jettySize=auto;html=1;exitX=0;exitY=0.5;exitDx=0;exitDy=0;entryX=1;entryY=0.5;entryDx=0;entryDy=0;fontSize=12;startSize=8;endSize=8;" edge="1" parent="1" source="-2QtOGoEhmq292CrAgA1-1" target="-2QtOGoEhmq292CrAgA1-79">
          <mxGeometry relative="1" as="geometry" />
        </mxCell>
        <mxCell id="-2QtOGoEhmq292CrAgA1-1" value="pp_fab" style="rounded=1;whiteSpace=wrap;html=1;fillColor=#d5e8d4;strokeColor=#82b366;" vertex="1" parent="1">
          <mxGeometry x="610" y="200" width="80" height="620" as="geometry" />
        </mxCell>
        <mxCell id="-2QtOGoEhmq292CrAgA1-3" value="PHY&lt;div&gt;&lt;font style=&quot;font-size: 8px;&quot;&gt;serdes PHY 8Lane&lt;/font&gt;&lt;/div&gt;" style="rounded=1;whiteSpace=wrap;html=1;fillColor=#f8cecc;strokeColor=#b85450;" vertex="1" parent="1">
          <mxGeometry x="50" y="210" width="120" height="140" as="geometry" />
        </mxCell>
        <mxCell id="-2QtOGoEhmq292CrAgA1-4" value="" style="rounded=1;whiteSpace=wrap;html=1;fillColor=#dae8fc;strokeColor=#6c8ebf;" vertex="1" parent="1">
          <mxGeometry x="300" y="280" width="140" height="80" as="geometry" />
        </mxCell>
        <mxCell id="-2QtOGoEhmq292CrAgA1-5" value="" style="rounded=1;whiteSpace=wrap;html=1;fillColor=#dae8fc;strokeColor=#6c8ebf;" vertex="1" parent="1">
          <mxGeometry x="300" y="200" width="140" height="80" as="geometry" />
        </mxCell>
        <mxCell id="-2QtOGoEhmq292CrAgA1-6" value="PLL" style="ellipse;whiteSpace=wrap;html=1;aspect=fixed;rounded=1;" vertex="1" parent="1">
          <mxGeometry x="420" y="400" width="80" height="80" as="geometry" />
        </mxCell>
        <mxCell id="-2QtOGoEhmq292CrAgA1-7" value="PINMUX&lt;div&gt;group*2&lt;/div&gt;&lt;div&gt;IOPAD+&lt;/div&gt;&lt;div&gt;pin_reg+&lt;/div&gt;&lt;div&gt;VDET&lt;/div&gt;" style="rounded=1;whiteSpace=wrap;html=1;fillColor=#f8cecc;strokeColor=#b85450;" vertex="1" parent="1">
          <mxGeometry x="50" y="430" width="50" height="310" as="geometry" />
        </mxCell>
        <mxCell id="-2QtOGoEhmq292CrAgA1-8" value="UART*2&lt;div&gt;Baud rate&amp;lt;2M,flow ctrl&lt;/div&gt;" style="rounded=1;whiteSpace=wrap;html=1;fillColor=#dae8fc;strokeColor=#6c8ebf;fontSize=8;" vertex="1" parent="1">
          <mxGeometry x="140" y="450" width="120" height="40" as="geometry" />
        </mxCell>
        <mxCell id="-2QtOGoEhmq292CrAgA1-9" value="i2c_mst*2" style="rounded=1;whiteSpace=wrap;html=1;fillColor=#dae8fc;strokeColor=#6c8ebf;fontSize=8;" vertex="1" parent="1">
          <mxGeometry x="140" y="490" width="120" height="40" as="geometry" />
        </mxCell>
        <mxCell id="-2QtOGoEhmq292CrAgA1-10" value="spi_mst" style="rounded=1;whiteSpace=wrap;html=1;fillColor=#dae8fc;strokeColor=#6c8ebf;fontSize=8;" vertex="1" parent="1">
          <mxGeometry x="140" y="570" width="120" height="40" as="geometry" />
        </mxCell>
        <mxCell id="-2QtOGoEhmq292CrAgA1-11" value="PWM控制器*2&lt;div&gt;每个控制器控制器8个pwm&lt;/div&gt;" style="rounded=1;whiteSpace=wrap;html=1;fillColor=#dae8fc;strokeColor=#6c8ebf;fontSize=8;" vertex="1" parent="1">
          <mxGeometry x="140" y="650" width="120" height="40" as="geometry" />
        </mxCell>
        <mxCell id="-2QtOGoEhmq292CrAgA1-15" value="gpio&lt;div&gt;32&lt;/div&gt;" style="rounded=1;whiteSpace=wrap;html=1;fillColor=#dae8fc;strokeColor=#6c8ebf;fontSize=8;" vertex="1" parent="1">
          <mxGeometry x="140" y="610" width="120" height="40" as="geometry" />
        </mxCell>
        <mxCell id="-2QtOGoEhmq292CrAgA1-16" value="i2s_slv" style="rounded=1;whiteSpace=wrap;html=1;fillColor=#dae8fc;strokeColor=#6c8ebf;fontSize=8;" vertex="1" parent="1">
          <mxGeometry x="140" y="530" width="120" height="40" as="geometry" />
        </mxCell>
        <mxCell id="-2QtOGoEhmq292CrAgA1-61" style="edgeStyle=elbowEdgeStyle;rounded=1;orthogonalLoop=1;jettySize=auto;html=1;exitX=0.5;exitY=1;exitDx=0;exitDy=0;entryX=1;entryY=0.5;entryDx=0;entryDy=0;fontSize=12;startSize=8;endSize=8;" edge="1" parent="1" source="-2QtOGoEhmq292CrAgA1-17" target="-2QtOGoEhmq292CrAgA1-18">
          <mxGeometry relative="1" as="geometry">
            <Array as="points">
              <mxPoint x="360" y="770" />
            </Array>
          </mxGeometry>
        </mxCell>
        <mxCell id="-2QtOGoEhmq292CrAgA1-17" value="APB_DEC" style="rounded=1;whiteSpace=wrap;html=1;direction=east;horizontal=0;" vertex="1" parent="1">
          <mxGeometry x="330" y="430" width="60" height="310" as="geometry" />
        </mxCell>
        <mxCell id="-2QtOGoEhmq292CrAgA1-62" style="edgeStyle=elbowEdgeStyle;rounded=1;orthogonalLoop=1;jettySize=auto;html=1;exitX=0;exitY=0.5;exitDx=0;exitDy=0;entryX=0.5;entryY=1;entryDx=0;entryDy=0;fontSize=12;startSize=8;endSize=8;" edge="1" parent="1" source="-2QtOGoEhmq292CrAgA1-18" target="-2QtOGoEhmq292CrAgA1-7">
          <mxGeometry relative="1" as="geometry">
            <Array as="points">
              <mxPoint x="75" y="760" />
            </Array>
          </mxGeometry>
        </mxCell>
        <mxCell id="-2QtOGoEhmq292CrAgA1-18" value="pinmux_glb" style="rounded=1;whiteSpace=wrap;html=1;fontSize=8;" vertex="1" parent="1">
          <mxGeometry x="140" y="770" width="120" height="40" as="geometry" />
        </mxCell>
        <mxCell id="-2QtOGoEhmq292CrAgA1-19" value="sys_glb" style="rounded=1;whiteSpace=wrap;html=1;" vertex="1" parent="1">
          <mxGeometry x="410" y="610" width="120" height="40" as="geometry" />
        </mxCell>
        <mxCell id="-2QtOGoEhmq292CrAgA1-20" value="ck_rst" style="rounded=1;whiteSpace=wrap;html=1;" vertex="1" parent="1">
          <mxGeometry x="410" y="530" width="120" height="40" as="geometry" />
        </mxCell>
        <mxCell id="-2QtOGoEhmq292CrAgA1-21" value="axera_dma_perf" style="rounded=1;whiteSpace=wrap;html=1;" vertex="1" parent="1">
          <mxGeometry x="410" y="690" width="120" height="40" as="geometry" />
        </mxCell>
        <mxCell id="-2QtOGoEhmq292CrAgA1-22" value="C2C Gen5 4Lane&lt;div&gt;16/8/4/2.5/1.25GBps&lt;/div&gt;" style="rounded=1;whiteSpace=wrap;html=1;fontSize=8;fillColor=#ffe6cc;strokeColor=#d79b00;" vertex="1" parent="1">
          <mxGeometry x="310" y="210" width="120" height="30" as="geometry" />
        </mxCell>
        <mxCell id="-2QtOGoEhmq292CrAgA1-24" value="PCS+PPU+PMA&lt;div&gt;4Lane&lt;/div&gt;" style="rounded=1;whiteSpace=wrap;html=1;fontSize=8;" vertex="1" parent="1">
          <mxGeometry x="70" y="210" width="80" height="40" as="geometry" />
        </mxCell>
        <mxCell id="-2QtOGoEhmq292CrAgA1-25" value="PCS+PPU+PMA&lt;div&gt;4Lane&lt;/div&gt;" style="rounded=1;whiteSpace=wrap;html=1;fontSize=8;" vertex="1" parent="1">
          <mxGeometry x="70" y="310" width="80" height="40" as="geometry" />
        </mxCell>
        <mxCell id="-2QtOGoEhmq292CrAgA1-53" style="edgeStyle=elbowEdgeStyle;rounded=0;orthogonalLoop=1;jettySize=auto;html=1;exitX=0;exitY=0.5;exitDx=0;exitDy=0;entryX=1;entryY=0.75;entryDx=0;entryDy=0;fontSize=12;startSize=8;endSize=8;" edge="1" parent="1" source="-2QtOGoEhmq292CrAgA1-27" target="-2QtOGoEhmq292CrAgA1-34">
          <mxGeometry relative="1" as="geometry" />
        </mxCell>
        <mxCell id="-2QtOGoEhmq292CrAgA1-27" value="C2C Gen5 4Lane&lt;div&gt;16/8/4/2.5/1.25GBps&lt;/div&gt;" style="rounded=1;whiteSpace=wrap;html=1;fontSize=8;fillColor=#ffe6cc;strokeColor=#d79b00;" vertex="1" parent="1">
          <mxGeometry x="310" y="320" width="120" height="30" as="geometry" />
        </mxCell>
        <mxCell id="-2QtOGoEhmq292CrAgA1-52" style="edgeStyle=elbowEdgeStyle;rounded=0;orthogonalLoop=1;jettySize=auto;html=1;exitX=0;exitY=0.5;exitDx=0;exitDy=0;entryX=1;entryY=0.75;entryDx=0;entryDy=0;fontSize=12;startSize=8;endSize=8;" edge="1" parent="1" source="-2QtOGoEhmq292CrAgA1-30" target="-2QtOGoEhmq292CrAgA1-33">
          <mxGeometry relative="1" as="geometry" />
        </mxCell>
        <mxCell id="-2QtOGoEhmq292CrAgA1-30" value="PCIe Gen5 4Lane&lt;div&gt;16/8/4/2.5/1.25GBps&lt;/div&gt;" style="rounded=1;whiteSpace=wrap;html=1;fontSize=8;fillColor=#60a917;fontColor=#ffffff;strokeColor=#2D7600;" vertex="1" parent="1">
          <mxGeometry x="310" y="290" width="120" height="30" as="geometry" />
        </mxCell>
        <mxCell id="-2QtOGoEhmq292CrAgA1-50" style="edgeStyle=elbowEdgeStyle;rounded=0;orthogonalLoop=1;jettySize=auto;html=1;exitX=0;exitY=0.5;exitDx=0;exitDy=0;entryX=1;entryY=0.75;entryDx=0;entryDy=0;fontSize=12;startSize=8;endSize=8;" edge="1" parent="1" source="-2QtOGoEhmq292CrAgA1-31" target="-2QtOGoEhmq292CrAgA1-32">
          <mxGeometry relative="1" as="geometry">
            <Array as="points">
              <mxPoint x="290" y="250" />
            </Array>
          </mxGeometry>
        </mxCell>
        <mxCell id="-2QtOGoEhmq292CrAgA1-51" style="edgeStyle=elbowEdgeStyle;rounded=0;orthogonalLoop=1;jettySize=auto;html=1;exitX=0;exitY=0.5;exitDx=0;exitDy=0;entryX=1;entryY=0.25;entryDx=0;entryDy=0;fontSize=12;startSize=8;endSize=8;" edge="1" parent="1" source="-2QtOGoEhmq292CrAgA1-31" target="-2QtOGoEhmq292CrAgA1-33">
          <mxGeometry relative="1" as="geometry" />
        </mxCell>
        <mxCell id="-2QtOGoEhmq292CrAgA1-31" value="PCIe Gen5 8Lane&lt;div&gt;8lane:32/16/8/4/2.5GBps&lt;/div&gt;&lt;div&gt;4lane:16/8/4/2.5/1.25GBps&lt;/div&gt;" style="rounded=1;whiteSpace=wrap;html=1;fontSize=8;fillColor=#60a917;fontColor=#ffffff;strokeColor=#2D7600;" vertex="1" parent="1">
          <mxGeometry x="310" y="240" width="120" height="30" as="geometry" />
        </mxCell>
        <mxCell id="-2QtOGoEhmq292CrAgA1-55" style="edgeStyle=elbowEdgeStyle;rounded=0;orthogonalLoop=1;jettySize=auto;html=1;exitX=0;exitY=0.5;exitDx=0;exitDy=0;entryX=1;entryY=0.5;entryDx=0;entryDy=0;fontSize=12;startSize=8;endSize=8;" edge="1" parent="1" source="-2QtOGoEhmq292CrAgA1-32" target="-2QtOGoEhmq292CrAgA1-24">
          <mxGeometry relative="1" as="geometry" />
        </mxCell>
        <mxCell id="-2QtOGoEhmq292CrAgA1-32" value="2mux1" style="rounded=1;whiteSpace=wrap;html=1;fontSize=6;" vertex="1" parent="1">
          <mxGeometry x="200" y="220" width="20" height="20" as="geometry" />
        </mxCell>
        <mxCell id="-2QtOGoEhmq292CrAgA1-54" style="edgeStyle=elbowEdgeStyle;rounded=0;orthogonalLoop=1;jettySize=auto;html=1;exitX=0;exitY=0.5;exitDx=0;exitDy=0;entryX=1;entryY=0.25;entryDx=0;entryDy=0;fontSize=12;startSize=8;endSize=8;" edge="1" parent="1" source="-2QtOGoEhmq292CrAgA1-33" target="-2QtOGoEhmq292CrAgA1-34">
          <mxGeometry relative="1" as="geometry" />
        </mxCell>
        <mxCell id="-2QtOGoEhmq292CrAgA1-33" value="2mux1" style="rounded=1;whiteSpace=wrap;html=1;fontSize=6;" vertex="1" parent="1">
          <mxGeometry x="250" y="290" width="20" height="20" as="geometry" />
        </mxCell>
        <mxCell id="-2QtOGoEhmq292CrAgA1-56" style="edgeStyle=elbowEdgeStyle;rounded=0;orthogonalLoop=1;jettySize=auto;html=1;exitX=0;exitY=0.5;exitDx=0;exitDy=0;entryX=1;entryY=0.5;entryDx=0;entryDy=0;fontSize=12;startSize=8;endSize=8;" edge="1" parent="1" source="-2QtOGoEhmq292CrAgA1-34" target="-2QtOGoEhmq292CrAgA1-25">
          <mxGeometry relative="1" as="geometry" />
        </mxCell>
        <mxCell id="-2QtOGoEhmq292CrAgA1-34" value="2mux1" style="rounded=1;whiteSpace=wrap;html=1;fontSize=6;" vertex="1" parent="1">
          <mxGeometry x="200" y="320" width="20" height="20" as="geometry" />
        </mxCell>
        <mxCell id="-2QtOGoEhmq292CrAgA1-49" style="edgeStyle=elbowEdgeStyle;rounded=0;orthogonalLoop=1;jettySize=auto;html=1;exitX=0;exitY=0.5;exitDx=0;exitDy=0;entryX=1;entryY=0.25;entryDx=0;entryDy=0;fontSize=12;startSize=8;endSize=8;" edge="1" parent="1" source="-2QtOGoEhmq292CrAgA1-22" target="-2QtOGoEhmq292CrAgA1-32">
          <mxGeometry relative="1" as="geometry" />
        </mxCell>
        <mxCell id="-2QtOGoEhmq292CrAgA1-57" value="Fan tacho&lt;div&gt;风扇计数&lt;/div&gt;" style="rounded=1;whiteSpace=wrap;html=1;fillColor=#dae8fc;strokeColor=#6c8ebf;fontSize=8;" vertex="1" parent="1">
          <mxGeometry x="140" y="690" width="120" height="40" as="geometry" />
        </mxCell>
        <mxCell id="-2QtOGoEhmq292CrAgA1-66" value="" style="endArrow=classic;startArrow=classic;html=1;rounded=1;fontSize=12;startSize=8;endSize=8;curved=1;entryX=0;entryY=0.5;entryDx=0;entryDy=0;exitX=1;exitY=0.5;exitDx=0;exitDy=0;" edge="1" parent="1" source="-2QtOGoEhmq292CrAgA1-59" target="-2QtOGoEhmq292CrAgA1-17">
          <mxGeometry width="50" height="50" relative="1" as="geometry">
            <mxPoint x="280" y="590" as="sourcePoint" />
            <mxPoint x="330" y="540" as="targetPoint" />
          </mxGeometry>
        </mxCell>
        <mxCell id="-2QtOGoEhmq292CrAgA1-69" style="edgeStyle=none;curved=1;rounded=1;orthogonalLoop=1;jettySize=auto;html=1;exitX=1;exitY=0.25;exitDx=0;exitDy=0;fontSize=12;startSize=8;endSize=8;entryX=1;entryY=0.25;entryDx=0;entryDy=0;" edge="1" parent="1" target="-2QtOGoEhmq292CrAgA1-1">
          <mxGeometry relative="1" as="geometry">
            <mxPoint x="776" y="355.21212121212125" as="sourcePoint" />
          </mxGeometry>
        </mxCell>
        <mxCell id="-2QtOGoEhmq292CrAgA1-73" value="&lt;div&gt;Async&lt;/div&gt;&lt;div&gt;AXI_slv&lt;/div&gt;&lt;div&gt;id7_blw5_d&lt;span style=&quot;background-color: light-dark(#ffffff, var(--ge-dark-color, #121212)); color: light-dark(rgb(0, 0, 0), rgb(255, 255, 255));&quot;&gt;256&lt;/span&gt;&lt;/div&gt;&lt;div&gt;cpu2pp&lt;/div&gt;" style="edgeLabel;html=1;align=left;verticalAlign=middle;resizable=0;points=[];fontSize=12;rounded=1;" vertex="1" connectable="0" parent="-2QtOGoEhmq292CrAgA1-69">
          <mxGeometry x="0.2564" y="2" relative="1" as="geometry">
            <mxPoint x="-2" y="33" as="offset" />
          </mxGeometry>
        </mxCell>
        <mxCell id="-2QtOGoEhmq292CrAgA1-70" style="edgeStyle=none;curved=1;rounded=1;orthogonalLoop=1;jettySize=auto;html=1;exitX=1;exitY=0.75;exitDx=0;exitDy=0;fontSize=12;startSize=8;endSize=8;" edge="1" parent="1" source="-2QtOGoEhmq292CrAgA1-1">
          <mxGeometry relative="1" as="geometry">
            <mxPoint x="776" y="664.909090909091" as="targetPoint" />
          </mxGeometry>
        </mxCell>
        <mxCell id="-2QtOGoEhmq292CrAgA1-71" value="Async&lt;div&gt;AXI_mst&lt;/div&gt;&lt;div&gt;id9_blw5_d256&lt;/div&gt;&lt;div&gt;pp2ddr&lt;/div&gt;" style="edgeLabel;html=1;align=left;verticalAlign=middle;resizable=0;points=[];fontSize=12;rounded=1;" vertex="1" connectable="0" parent="-2QtOGoEhmq292CrAgA1-70">
          <mxGeometry x="0.3278" y="1" relative="1" as="geometry">
            <mxPoint x="-27" y="36" as="offset" />
          </mxGeometry>
        </mxCell>
        <mxCell id="-2QtOGoEhmq292CrAgA1-74" style="edgeStyle=none;curved=1;rounded=1;orthogonalLoop=1;jettySize=auto;html=1;exitX=1;exitY=0.25;exitDx=0;exitDy=0;fontSize=12;startSize=8;endSize=8;" edge="1" parent="1" source="-2QtOGoEhmq292CrAgA1-5">
          <mxGeometry relative="1" as="geometry">
            <mxPoint x="610" y="221" as="targetPoint" />
          </mxGeometry>
        </mxCell>
        <mxCell id="-2QtOGoEhmq292CrAgA1-75" style="edgeStyle=none;curved=1;rounded=1;orthogonalLoop=1;jettySize=auto;html=1;exitX=-0.02;exitY=0.097;exitDx=0;exitDy=0;entryX=1;entryY=0.75;entryDx=0;entryDy=0;fontSize=12;startSize=8;endSize=8;exitPerimeter=0;" edge="1" parent="1" source="-2QtOGoEhmq292CrAgA1-1" target="-2QtOGoEhmq292CrAgA1-5">
          <mxGeometry relative="1" as="geometry" />
        </mxCell>
        <mxCell id="-2QtOGoEhmq292CrAgA1-76" style="edgeStyle=none;curved=1;rounded=1;orthogonalLoop=1;jettySize=auto;html=1;exitX=1;exitY=0.25;exitDx=0;exitDy=0;fontSize=12;startSize=8;endSize=8;" edge="1" parent="1">
          <mxGeometry relative="1" as="geometry">
            <mxPoint x="440" y="299.44" as="sourcePoint" />
            <mxPoint x="610" y="300.44" as="targetPoint" />
          </mxGeometry>
        </mxCell>
        <mxCell id="-2QtOGoEhmq292CrAgA1-77" style="edgeStyle=none;curved=1;rounded=1;orthogonalLoop=1;jettySize=auto;html=1;exitX=-0.02;exitY=0.097;exitDx=0;exitDy=0;entryX=1;entryY=0.75;entryDx=0;entryDy=0;fontSize=12;startSize=8;endSize=8;exitPerimeter=0;" edge="1" parent="1">
          <mxGeometry relative="1" as="geometry">
            <mxPoint x="608" y="339.44" as="sourcePoint" />
            <mxPoint x="440" y="339.44" as="targetPoint" />
          </mxGeometry>
        </mxCell>
        <mxCell id="-2QtOGoEhmq292CrAgA1-79" value="X2P" style="rounded=0;whiteSpace=wrap;html=1;fontSize=8;" vertex="1" parent="1">
          <mxGeometry x="455" y="500" width="30" height="20" as="geometry" />
        </mxCell>
      </root>
    </mxGraphModel>
  </diagram>
</mxfile>
